<svg xmlns="http://www.w3.org/2000/svg" width="100" height="100" viewBox="0 0 179 139" fill="none">
  <mask id="mask0_65_348" style="mask-type:luminance" maskUnits="userSpaceOnUse" x="0" y="0" width="179" height="139">
    <path d="M178.778 0.117188H0.221008V138.882H178.778V0.117188Z" fill="white"/>
  </mask>
  <g mask="url(#mask0_65_348)">
    <path d="M167.767 24.4222H132.958L129.974 9.03219C129.487 6.52239 128.142 4.26019 126.17 2.63357C124.197 1.00696 121.721 0.117303 119.164 0.117189H59.837C57.2794 0.11591 54.8011 1.00493 52.8275 2.63166C50.8539 4.25839 49.508 6.52138 49.021 9.03219L46.037 24.4222H11.233C9.78685 24.4221 8.35484 24.7068 7.01874 25.2602C5.68265 25.8135 4.46864 26.6247 3.44606 27.6472C2.42347 28.6698 1.61234 29.8838 1.05898 31.2199C0.505621 32.556 0.220877 33.988 0.221008 35.4342L0.221008 127.87C0.221008 130.791 1.3812 133.592 3.44635 135.657C5.5115 137.722 8.31244 138.882 11.233 138.882H167.767C170.688 138.882 173.489 137.722 175.554 135.657C177.619 133.592 178.779 130.791 178.779 127.87V35.4342C178.779 33.988 178.494 32.556 177.941 31.2199C177.388 29.8838 176.577 28.6698 175.554 27.6472C174.531 26.6247 173.317 25.8135 171.981 25.2602C170.645 24.7068 169.213 24.4221 167.767 24.4222ZM89.5 121.54C81.6109 121.54 73.899 119.201 67.3394 114.818C60.7799 110.435 55.6673 104.205 52.6483 96.9167C49.6293 89.6281 48.8394 81.6079 50.3784 73.8704C51.9175 66.1329 55.7165 59.0256 61.2949 53.4471C66.8734 47.8687 73.9807 44.0697 81.7182 42.5306C89.4558 40.9915 97.4759 41.7815 104.764 44.8005C112.053 47.8195 118.283 52.9321 122.666 59.4916C127.049 66.0512 129.388 73.7631 129.388 81.6522C129.388 86.8904 128.356 92.0772 126.352 96.9167C124.347 101.756 121.409 106.153 117.705 109.857C114.001 113.561 109.604 116.499 104.764 118.504C99.9251 120.508 94.7382 121.54 89.5 121.54Z" fill="white"/>
    <path d="M117.705 81.6523C117.705 87.2307 116.051 92.6838 112.952 97.3221C109.852 101.96 105.447 105.576 100.294 107.71C95.1398 109.845 89.4687 110.404 83.9975 109.315C78.5262 108.227 73.5006 105.541 69.5561 101.596C65.6115 97.6517 62.9252 92.626 61.8369 87.1548C60.7487 81.6836 61.3072 76.0125 63.442 70.8587C65.5767 65.7049 69.1919 61.2999 73.8301 58.2007C78.4684 55.1015 83.9216 53.4473 89.5 53.4473C96.9804 53.4475 104.154 56.4192 109.444 61.7086C114.733 66.998 117.705 74.1719 117.705 81.6523Z" fill="white"/>
  </g>
</svg>