<svg width="520" height="187" viewBox="0 0 520 187" fill="none" xmlns="http://www.w3.org/2000/svg">
<path d="M14.4453 124.135C14.4453 123.012 14.6895 121.449 15.1777 119.447C15.666 117.396 16.3252 115.81 17.1553 114.687C19.2549 111.708 21.1836 108.974 22.9414 106.483C24.6992 103.993 26.2617 101.845 27.6289 100.038C28.9961 98.2314 30.3633 96.6201 31.7305 95.2041C40.0801 86.1709 46.0615 79.4326 49.6748 74.9893C53.2881 70.4971 55.0947 67.3721 55.0947 65.6143C55.0947 64.4424 54.5576 63.5391 53.4834 62.9043C52.4092 62.2207 50.9932 61.8789 49.2354 61.8789C45.6221 61.8789 41.0811 63.1729 35.6123 65.7607C30.1436 68.2998 23.7471 71.6201 16.4229 75.7217C9.14746 79.8232 5.09473 81.874 4.26465 81.874C2.94629 81.874 2.28711 80.9219 2.28711 79.0176C2.28711 77.4062 2.7998 75.1113 3.8252 72.1328C4.60645 68.9102 5.24121 66.4199 5.72949 64.6621C6.21777 62.8555 7.02344 61.2441 8.14648 59.8281C9.31836 58.4121 11.2227 56.874 13.8594 55.2139C16.5449 53.5537 20.6465 51.2832 26.1641 48.4023L26.8965 51.1123C31.4863 49.2568 35.8076 47.8408 39.8604 46.8643C43.9619 45.8877 47.4531 45.3994 50.334 45.3994C55.998 45.3994 60.002 46.376 62.3457 48.3291C64.7383 50.2334 65.9346 54.4082 65.9346 60.8535C65.9346 64.3691 65.4219 67.2988 64.3965 69.6426C63.3711 71.9863 61.3691 75.2578 58.3906 79.457C51.6035 89.3203 46.501 96.1562 43.083 99.9648C33.1709 111.293 28.2148 117.909 28.2148 119.813C28.2148 120.888 28.9229 121.425 30.3389 121.425C31.5107 121.425 33.1709 120.595 35.3193 118.935C37.4678 117.274 40.0557 114.882 43.083 111.757C46.1104 108.632 50.3096 104.164 55.6807 98.3535C61.3936 92.2012 66.2031 86.7812 70.1094 82.0938C74.0645 77.3574 77.3115 73.3291 79.8506 70.0088C82.3896 66.6396 83.7324 64.833 83.8789 64.5889C86.5156 61.3662 89.2256 58.7295 92.0088 56.6787C94.8408 54.5791 96.6475 53.5293 97.4287 53.5293C98.0146 53.5293 98.6982 54.0664 99.4795 55.1406C100.261 56.2148 100.92 57.4844 101.457 58.9492C102.043 60.4141 102.336 61.5371 102.336 62.3184C102.336 62.5625 101.75 63.7588 100.578 65.9072C99.4062 68.0068 98.1367 70.2041 96.7695 72.499C95.4023 74.7451 93.2051 78.2119 90.1777 82.8994C83.5371 93.2021 78.459 101.869 74.9434 108.9C71.4277 115.883 69.6699 120.473 69.6699 122.67C69.6699 123.451 69.9385 124.184 70.4756 124.867C71.0615 125.502 71.6475 125.819 72.2334 125.819C73.0146 125.819 74.4307 125.209 76.4814 123.988C78.5322 122.719 80.8027 120.912 83.293 118.568C86.5645 115.443 89.543 112.196 92.2285 108.827C94.9141 105.458 97.5752 101.698 100.212 97.5479C102.849 93.3975 105.192 89.4668 107.243 85.7559C109.294 82.0449 111.369 78.1387 113.469 74.0371L112.224 70.3018C112.028 69.7158 111.931 68.959 111.931 68.0312C111.931 67.2988 113.371 64.9307 116.252 60.9268C119.133 56.874 121.037 54.8477 121.965 54.8477C122.99 54.8477 123.845 55.6045 124.528 57.1182C125.261 58.583 125.627 60.0723 125.627 61.5859C125.627 63.2461 124.87 66.5664 123.356 71.5469C121.892 76.4785 119.572 82.46 116.398 89.4912C113.273 96.5225 109.392 103.676 104.753 110.951C100.749 117.299 96.4521 122.743 91.8623 127.284C87.3213 131.776 83.2197 135.121 79.5576 137.318C75.8955 139.516 73.1855 140.614 71.4277 140.614C69.4258 140.614 67.3262 139.735 65.1289 137.978C63.3223 136.415 62.0283 135.023 61.2471 133.803C60.5146 132.533 60.0264 131.166 59.7822 129.701C59.5381 128.236 59.416 126.527 59.416 124.574C59.416 120.424 60.5635 115.565 62.8584 109.999C65.1533 104.433 68.5713 97.499 73.1123 89.1982C58.9033 106.483 47.8926 119.057 40.0801 126.918C32.3164 134.779 26.6279 138.71 23.0146 138.71C20.6221 138.71 18.5957 137.294 16.9355 134.462C15.2754 131.581 14.4453 128.139 14.4453 124.135ZM145.842 80.1895C144.621 80.1895 143.449 79.7256 142.326 78.7979C141.252 77.8701 140.715 76.6982 140.715 75.2822C140.715 73.1338 141.74 70.7412 143.791 68.1045C145.842 65.4678 147.966 64.1494 150.163 64.1494C151.628 64.1494 152.849 64.6133 153.825 65.541C154.802 66.4199 155.29 67.7139 155.29 69.4229C155.29 71.5225 154.289 73.8418 152.287 76.3809C150.285 78.9199 148.137 80.1895 145.842 80.1895ZM150.822 112.929V118.275C146.086 124.379 141.667 128.993 137.565 132.118C133.464 135.194 129.973 136.732 127.092 136.732C123.088 136.732 120.109 134.633 118.156 130.434C116.203 126.234 115.227 121.645 115.227 116.664C115.227 114.76 115.422 112.953 115.812 111.244C116.203 109.486 116.667 108.046 117.204 106.923C117.741 105.8 118.742 104.042 120.207 101.649C127.141 90.8584 133.488 85.4629 139.25 85.4629C142.229 85.4629 143.718 86.6104 143.718 88.9053C143.718 90.4678 142.741 92.9092 140.788 96.2295C138.884 99.5498 137.175 101.918 135.661 103.334C131.413 107.436 128.63 110.292 127.312 111.903C126.042 113.515 125.407 115.346 125.407 117.396C125.407 119.154 126.066 120.619 127.385 121.791C128.703 122.963 130.412 123.549 132.512 123.549C134.807 123.549 137.321 122.719 140.056 121.059C142.839 119.35 146.428 116.64 150.822 112.929ZM149.943 114.979V113.222C162.541 99.9404 171.208 90.6387 175.944 85.3164C177.019 79.3105 179.606 76.3076 183.708 76.3076C184.733 76.3076 185.832 76.6006 187.004 77.1865L187.443 78.5781C187.248 79.1641 187.15 79.9941 187.15 81.0684C187.15 81.9961 187.492 83.7295 188.176 86.2686C188.908 88.7588 189.47 90.8584 189.86 92.5674C190.251 94.2764 190.446 96.2051 190.446 98.3535C190.446 101.576 189.714 104.677 188.249 107.655C186.784 110.585 184.66 113.417 181.877 116.151C179.094 118.837 175.505 121.596 171.11 124.428C172.868 124.721 174.26 124.867 175.285 124.867C177.287 124.867 179.436 124.379 181.73 123.402C184.074 122.377 186.442 121.034 188.835 119.374C191.276 117.665 194.108 115.468 197.331 112.782V117.689C191.081 123.793 185.49 128.432 180.559 131.605C175.627 134.73 171.379 136.293 167.814 136.293C163.225 136.293 158.977 134.34 155.07 130.434C152.775 128.09 151.335 125.844 150.749 123.695C150.212 121.547 149.943 118.642 149.943 114.979ZM177.263 103.773L175.944 93.0801C172.917 96.498 166.447 103.065 156.535 112.782C159.465 113.417 161.467 114.271 162.541 115.346C163.615 116.42 165.129 118.495 167.082 121.571C170.402 120.204 172.941 118.349 174.699 116.005C176.506 113.612 177.409 110.365 177.409 106.264C177.409 105.775 177.385 105.336 177.336 104.945C177.336 104.555 177.312 104.164 177.263 103.773ZM251.896 112.929V117.543C247.648 121.889 243.962 125.453 240.837 128.236C237.761 130.971 235.051 133.046 232.707 134.462C230.412 135.878 228.459 136.586 226.848 136.586C223.039 136.586 221.135 134.34 221.135 129.848C221.135 126.234 222.307 122.06 224.65 117.323C227.043 112.538 230.461 106.923 234.904 100.478C232.707 101.698 230.632 103.114 228.679 104.726C226.726 106.288 224.992 107.948 223.479 109.706C221.965 111.415 220.695 112.88 219.67 114.101C216.496 117.665 213.444 121.327 210.515 125.087C207.585 128.798 205.607 131.215 204.582 132.338C203.557 133.461 202.58 134.022 201.652 134.022C197.844 134.022 195.939 129.335 195.939 119.96C195.939 116.884 196.403 113.49 197.331 109.779C198.259 106.068 200.749 101.161 204.802 95.0576C213.347 82.2646 220.646 71.8154 226.701 63.71C232.805 55.5557 237.858 49.4033 241.862 45.2529C245.866 41.0537 248.552 39.0029 249.919 39.1006C251.628 39.2471 252.995 39.5889 254.021 40.126C255.095 40.6631 255.632 41.2734 255.632 41.957C255.632 43.1777 254.777 45.2041 253.068 48.0361C251.408 50.8193 248.527 55.1895 244.426 61.1465C239.982 67.4453 236.833 71.8887 234.978 74.4766C233.122 77.0156 230.339 80.6533 226.628 85.3896C222.966 90.0771 219.597 94.2764 216.521 97.9873C213.493 101.649 210.026 105.629 206.12 109.926V118.715C212.663 111.439 218.327 105.482 223.112 100.844C227.897 96.2051 231.95 92.7139 235.271 90.3701C238.591 87.9775 241.032 86.7812 242.595 86.7812C244.06 86.7812 245.427 87.6602 246.696 89.418C247.966 91.127 248.601 92.543 248.601 93.666C248.601 94.1543 248.356 94.7646 247.868 95.4971C244.353 99.6963 241.545 103.188 239.445 105.971C237.395 108.705 235.808 111.171 234.685 113.368C233.562 115.517 233 117.372 233 118.935C233 121.229 234.099 122.377 236.296 122.377C238.64 122.377 243.84 119.228 251.896 112.929ZM377.36 112.636V117.689C372.722 122.035 368.767 125.551 365.495 128.236C362.272 130.873 359.05 133.266 355.827 135.414C352.604 137.514 349.919 139.003 347.771 139.882C345.671 140.81 343.864 141.273 342.351 141.273C338.737 141.273 335.783 139.931 333.488 137.245C331.193 134.56 330.046 131.093 330.046 126.845C330.046 121.962 331.022 117.128 332.976 112.343C334.978 107.558 337.81 102.626 341.472 97.5479C345.134 92.4209 349.724 86.6836 355.241 80.3359C359.343 75.6484 361.394 73.0117 361.394 72.4258C361.394 72.084 361.271 71.791 361.027 71.5469C360.783 71.3027 360.515 71.1807 360.222 71.1807C359.294 71.1807 356.438 73.2314 351.652 77.333C346.867 81.4346 340.715 87.4648 333.195 95.4238C325.725 103.383 317.644 112.855 308.952 123.842C308.464 124.428 306.901 126.43 304.265 129.848C301.677 133.217 299.846 135.414 298.771 136.439C297.697 137.465 296.77 137.978 295.988 137.978C294.621 137.978 293.425 136.61 292.399 133.876C291.423 131.093 290.935 128.139 290.935 125.014C290.935 123.109 291.545 121.059 292.766 118.861C294.035 116.664 296.745 112.733 300.896 107.069C305.095 101.356 308.562 96.5469 311.296 92.6406C314.03 88.7344 317.033 83.998 320.305 78.4316C322.6 74.5742 324.284 71.498 325.358 69.2031C326.481 66.9082 327.043 64.8818 327.043 63.124C327.043 61.6104 326.604 60.8535 325.725 60.8535C323.869 60.8535 320.378 63.3438 315.251 68.3242C310.124 73.2559 303.776 80.6045 296.208 90.3701C288.688 100.136 280.827 111.439 272.624 124.281C269.938 128.676 268.034 131.63 266.911 133.144C265.788 134.657 264.543 135.414 263.176 135.414C261.467 135.414 259.855 133.607 258.342 129.994C256.877 126.332 256.145 123.378 256.145 121.132C256.145 120.399 256.438 119.594 257.023 118.715C263.469 110.121 268.767 102.821 272.917 96.8154C277.067 90.8096 280.754 85.1211 283.977 79.75C287.199 74.3301 289.543 69.8867 291.008 66.4199C292.473 62.9043 293.205 60.1455 293.205 58.1436C293.205 56.0439 292.253 54.9941 290.349 54.9941C288.786 54.9941 286.125 55.9951 282.365 57.9971C278.605 59.999 273.845 62.7334 268.083 66.2002C262.37 69.667 257.78 72.3281 254.313 74.1836C250.847 75.9902 248.259 76.8936 246.55 76.8936C244.938 76.8936 244.133 75.9902 244.133 74.1836C244.133 73.1582 244.475 70.8145 245.158 67.1523C245.842 63.4414 246.55 60.8291 247.282 59.3154C248.308 57.3623 250.92 54.7744 255.119 51.5518C259.367 48.3291 261.711 46.7178 262.15 46.7178C262.541 46.7178 262.736 46.8887 262.736 47.2305C262.736 47.4258 262.541 47.7188 262.15 48.1094C260.148 49.7207 258.659 51.0391 257.683 52.0645C256.706 53.0898 256.096 54.2129 255.852 55.4336C264.787 50.0625 272.771 45.9854 279.802 43.2021C286.882 40.3701 291.789 38.9541 294.523 38.9541C295.891 38.9541 297.185 39.8818 298.405 41.7373C299.626 43.5439 300.651 45.668 301.481 48.1094C302.36 50.502 302.8 52.04 302.8 52.7236C302.8 55.2139 302.165 58.168 300.896 61.5859C299.626 64.9551 297.893 68.8857 295.695 73.3779C293.547 77.8701 290.861 83.4854 287.639 90.2236C290.178 86.9521 292.595 83.9248 294.89 81.1416C297.185 78.3584 299.455 75.6484 301.701 73.0117C303.996 70.375 306.315 67.7139 308.659 65.0283C311.833 61.3662 315.397 57.875 319.353 54.5547C323.308 51.1855 326.994 48.4512 330.412 46.3516C333.879 44.2031 336.223 43.1289 337.443 43.1289C339.152 43.1289 340.666 44.0811 341.984 45.9854C343.352 47.8408 344.035 49.8428 344.035 51.9912C344.035 53.4072 343.107 56.1172 341.252 60.1211C339.396 64.125 336.687 69.252 333.122 75.502C329.558 81.752 324.846 89.8086 318.986 99.6719C324.553 93.7637 330.339 87.6846 336.345 81.4346C342.351 75.1846 346.818 70.6191 349.748 67.7383C352.678 64.8574 355.119 62.6602 357.072 61.1465C359.758 59.0957 362.443 56.8984 365.129 54.5547C367.863 52.1621 370.012 50.2822 371.574 48.915C373.137 47.5479 374.528 46.498 375.749 45.7656C376.97 45.0332 378.093 44.667 379.118 44.667C380.388 44.667 381.975 46.1318 383.879 49.0615C385.832 51.9912 386.809 53.8711 386.809 54.7012C386.809 55.7266 386.223 56.9473 385.051 58.3633C383.928 59.7793 381.56 62.416 377.946 66.2734C371.306 73.4023 365.544 80.6045 360.661 87.8799C355.778 95.1064 352.067 101.723 349.528 107.729C347.038 113.686 345.793 118.397 345.793 121.864C345.793 124.013 346.184 125.575 346.965 126.552C347.795 127.528 349.064 128.017 350.773 128.017C352.336 128.017 353.776 127.724 355.095 127.138C356.462 126.552 357.951 125.722 359.562 124.647C361.223 123.573 362.785 122.548 364.25 121.571C366.301 120.351 368.303 119.057 370.256 117.689C372.258 116.273 373.796 115.175 374.87 114.394C375.993 113.563 376.823 112.978 377.36 112.636ZM385.417 99.8184C392.839 93.0801 400.041 88.0752 407.023 84.8037C414.006 81.5322 419.401 79.8965 423.21 79.8965C424.235 79.8965 425.188 80.3359 426.066 81.2148C426.945 82.0449 427.629 83.0215 428.117 84.1445C428.654 85.2676 428.923 86.0977 428.923 86.6348C428.923 87.5137 428.581 88.1729 427.897 88.6123C427.214 89.0029 426.018 89.4912 424.309 90.0771C424.65 90.8584 425.09 91.8594 425.627 93.0801C426.164 94.3008 426.579 95.3018 426.872 96.083C427.165 96.8154 427.312 97.4746 427.312 98.0605C427.312 99.2324 426.115 101.43 423.723 104.652C421.379 107.826 419.719 110.17 418.742 111.684C417.814 113.197 417.351 115.053 417.351 117.25C417.351 120.863 419.011 122.67 422.331 122.67C425.749 122.67 431.096 119.472 438.371 113.075V117.543C426.018 131.264 417.18 138.124 411.857 138.124C409.953 138.124 408.586 137.489 407.756 136.22C406.975 134.999 406.584 133.168 406.584 130.727C406.584 126.869 407.976 121.278 410.759 113.954C403.63 121.864 398.332 127.504 394.865 130.873C391.398 134.193 388.542 135.854 386.296 135.854C385.222 135.854 383.879 134.926 382.268 133.07C380.656 131.215 379.216 128.822 377.946 125.893C376.726 122.914 376.115 119.838 376.115 116.664C376.115 114.369 376.335 112.465 376.774 110.951C377.214 109.389 378.068 107.802 379.338 106.19C380.607 104.579 382.634 102.455 385.417 99.8184ZM420.5 91.7617C407.805 97.5723 398.747 102.504 393.327 106.557C387.956 110.609 385.271 114.784 385.271 119.081C385.271 120.644 385.539 121.938 386.076 122.963C386.613 123.939 387.346 124.428 388.273 124.428C388.811 124.428 389.763 124.086 391.13 123.402C396.257 120.375 400.944 116.444 405.192 111.61C409.44 106.728 414.543 100.111 420.5 91.7617ZM463.493 74.916H466.643C469.23 70.2773 471.574 67.0059 473.674 65.1016C475.773 63.1484 478.166 62.1719 480.852 62.1719C483.537 62.1719 484.88 62.7822 484.88 64.0029C484.88 64.5889 483.83 66.1758 481.73 68.7637C479.631 71.3516 478.044 73.5244 476.97 75.2822C478.63 75.4775 480.095 75.6484 481.364 75.7949C482.683 75.9414 483.708 76.0635 484.44 76.1611C481.657 81.3369 478.166 86.6348 473.967 92.0547C472.6 91.957 471.452 91.8838 470.524 91.835C469.597 91.7373 468.645 91.6641 467.668 91.6152C466.74 91.5176 465.593 91.4199 464.226 91.3223C461.589 95.5703 459.367 99.3789 457.561 102.748C455.803 106.068 454.436 109.12 453.459 111.903C452.531 114.687 452.067 117.323 452.067 119.813C452.067 123.183 453.41 124.867 456.096 124.867C457.951 124.867 460.368 123.891 463.347 121.938C466.374 119.936 470.402 116.884 475.432 112.782V117.689C462.248 131.996 452.507 139.149 446.208 139.149C444.011 139.149 442.229 138.295 440.861 136.586C439.543 134.877 438.884 132.68 438.884 129.994C438.884 128.188 439.25 126.039 439.982 123.549C440.764 121.059 442.131 117.299 444.084 112.27C443.4 112.855 442.741 113.441 442.106 114.027C441.521 114.564 440.959 115.077 440.422 115.565C439.934 116.005 439.396 116.493 438.811 117.03C438.225 117.519 437.639 118.031 437.053 118.568V113.515C442.18 109.218 448.381 101.674 455.656 90.8828C454.924 90.834 454.24 90.8096 453.605 90.8096C452.971 90.7607 452.214 90.7363 451.335 90.7363C448.454 90.7363 446.306 90.9316 444.89 91.3223C444.304 91.4688 443.742 91.6396 443.205 91.835C442.717 91.9814 442.375 92.0547 442.18 92.0547C441.984 92.0547 441.887 91.9082 441.887 91.6152C441.887 90.0039 442.888 87.5869 444.89 84.3643C446.501 81.6299 448.015 79.6035 449.431 78.2852C450.896 76.9668 452.653 76.0879 454.704 75.6484C456.804 75.1602 459.733 74.916 463.493 74.916ZM487.004 115.565V117.396C487.004 120.277 487.712 122.523 489.128 124.135C490.544 125.746 492.399 126.552 494.694 126.552C497.087 126.552 499.553 125.99 502.092 124.867C504.68 123.744 507.243 122.255 509.782 120.399C512.321 118.544 515.422 116.054 519.084 112.929V117.396C513.566 124.037 508.391 129.14 503.557 132.704C498.723 136.22 493.815 137.978 488.835 137.978C484.489 137.978 481.047 136.293 478.508 132.924C475.969 129.555 474.699 124.94 474.699 119.081C474.699 113.954 475.896 109.315 478.288 105.165C480.681 100.966 484.587 96.5469 490.007 91.9082C493.718 88.7344 497.404 86.3418 501.066 84.7305C504.729 83.1191 508 82.3135 510.881 82.3135C513.176 82.3135 514.982 82.8506 516.301 83.9248C517.668 84.9502 518.352 86.5127 518.352 88.6123C518.352 91.6885 517.204 94.7646 514.909 97.8408C512.614 100.868 509.099 103.896 504.362 106.923C499.675 109.901 493.889 112.782 487.004 115.565ZM487.736 110.805C492.131 109.096 495.891 106.972 499.016 104.433C502.141 101.894 504.436 99.4766 505.9 97.1816C507.414 94.8379 508.171 93.1289 508.171 92.0547C508.171 90.9316 507.658 90.3701 506.633 90.3701C505.754 90.3701 504.313 90.9316 502.312 92.0547C500.358 93.1777 498.356 94.6426 496.306 96.4492C494.304 98.2559 492.497 100.38 490.886 102.821C489.274 105.263 488.225 107.924 487.736 110.805Z" fill="black"/>
<path d="M12.4453 121.135C12.4453 120.012 12.6895 118.449 13.1777 116.447C13.666 114.396 14.3252 112.81 15.1553 111.687C17.2549 108.708 19.1836 105.974 20.9414 103.483C22.6992 100.993 24.2617 98.8447 25.6289 97.0381C26.9961 95.2314 28.3633 93.6201 29.7305 92.2041C38.0801 83.1709 44.0615 76.4326 47.6748 71.9893C51.2881 67.4971 53.0947 64.3721 53.0947 62.6143C53.0947 61.4424 52.5576 60.5391 51.4834 59.9043C50.4092 59.2207 48.9932 58.8789 47.2354 58.8789C43.6221 58.8789 39.0811 60.1729 33.6123 62.7607C28.1436 65.2998 21.7471 68.6201 14.4229 72.7217C7.14746 76.8232 3.09473 78.874 2.26465 78.874C0.946289 78.874 0.287109 77.9219 0.287109 76.0176C0.287109 74.4062 0.799805 72.1113 1.8252 69.1328C2.60645 65.9102 3.24121 63.4199 3.72949 61.6621C4.21777 59.8555 5.02344 58.2441 6.14648 56.8281C7.31836 55.4121 9.22266 53.874 11.8594 52.2139C14.5449 50.5537 18.6465 48.2832 24.1641 45.4023L24.8965 48.1123C29.4863 46.2568 33.8076 44.8408 37.8604 43.8643C41.9619 42.8877 45.4531 42.3994 48.334 42.3994C53.998 42.3994 58.002 43.376 60.3457 45.3291C62.7383 47.2334 63.9346 51.4082 63.9346 57.8535C63.9346 61.3691 63.4219 64.2988 62.3965 66.6426C61.3711 68.9863 59.3691 72.2578 56.3906 76.457C49.6035 86.3203 44.501 93.1562 41.083 96.9648C31.1709 108.293 26.2148 114.909 26.2148 116.813C26.2148 117.888 26.9229 118.425 28.3389 118.425C29.5107 118.425 31.1709 117.595 33.3193 115.935C35.4678 114.274 38.0557 111.882 41.083 108.757C44.1104 105.632 48.3096 101.164 53.6807 95.3535C59.3936 89.2012 64.2031 83.7812 68.1094 79.0938C72.0645 74.3574 75.3115 70.3291 77.8506 67.0088C80.3896 63.6396 81.7324 61.833 81.8789 61.5889C84.5156 58.3662 87.2256 55.7295 90.0088 53.6787C92.8408 51.5791 94.6475 50.5293 95.4287 50.5293C96.0146 50.5293 96.6982 51.0664 97.4795 52.1406C98.2607 53.2148 98.9199 54.4844 99.457 55.9492C100.043 57.4141 100.336 58.5371 100.336 59.3184C100.336 59.5625 99.75 60.7588 98.5781 62.9072C97.4062 65.0068 96.1367 67.2041 94.7695 69.499C93.4023 71.7451 91.2051 75.2119 88.1777 79.8994C81.5371 90.2021 76.459 98.8691 72.9434 105.9C69.4277 112.883 67.6699 117.473 67.6699 119.67C67.6699 120.451 67.9385 121.184 68.4756 121.867C69.0615 122.502 69.6475 122.819 70.2334 122.819C71.0146 122.819 72.4307 122.209 74.4814 120.988C76.5322 119.719 78.8027 117.912 81.293 115.568C84.5645 112.443 87.543 109.196 90.2285 105.827C92.9141 102.458 95.5752 98.6982 98.2119 94.5479C100.849 90.3975 103.192 86.4668 105.243 82.7559C107.294 79.0449 109.369 75.1387 111.469 71.0371L110.224 67.3018C110.028 66.7158 109.931 65.959 109.931 65.0312C109.931 64.2988 111.371 61.9307 114.252 57.9268C117.133 53.874 119.037 51.8477 119.965 51.8477C120.99 51.8477 121.845 52.6045 122.528 54.1182C123.261 55.583 123.627 57.0723 123.627 58.5859C123.627 60.2461 122.87 63.5664 121.356 68.5469C119.892 73.4785 117.572 79.46 114.398 86.4912C111.273 93.5225 107.392 100.676 102.753 107.951C98.749 114.299 94.4521 119.743 89.8623 124.284C85.3213 128.776 81.2197 132.121 77.5576 134.318C73.8955 136.516 71.1855 137.614 69.4277 137.614C67.4258 137.614 65.3262 136.735 63.1289 134.978C61.3223 133.415 60.0283 132.023 59.2471 130.803C58.5146 129.533 58.0264 128.166 57.7822 126.701C57.5381 125.236 57.416 123.527 57.416 121.574C57.416 117.424 58.5635 112.565 60.8584 106.999C63.1533 101.433 66.5713 94.499 71.1123 86.1982C56.9033 103.483 45.8926 116.057 38.0801 123.918C30.3164 131.779 24.6279 135.71 21.0146 135.71C18.6221 135.71 16.5957 134.294 14.9355 131.462C13.2754 128.581 12.4453 125.139 12.4453 121.135ZM143.842 77.1895C142.621 77.1895 141.449 76.7256 140.326 75.7979C139.252 74.8701 138.715 73.6982 138.715 72.2822C138.715 70.1338 139.74 67.7412 141.791 65.1045C143.842 62.4678 145.966 61.1494 148.163 61.1494C149.628 61.1494 150.849 61.6133 151.825 62.541C152.802 63.4199 153.29 64.7139 153.29 66.4229C153.29 68.5225 152.289 70.8418 150.287 73.3809C148.285 75.9199 146.137 77.1895 143.842 77.1895ZM148.822 109.929V115.275C144.086 121.379 139.667 125.993 135.565 129.118C131.464 132.194 127.973 133.732 125.092 133.732C121.088 133.732 118.109 131.633 116.156 127.434C114.203 123.234 113.227 118.645 113.227 113.664C113.227 111.76 113.422 109.953 113.812 108.244C114.203 106.486 114.667 105.046 115.204 103.923C115.741 102.8 116.742 101.042 118.207 98.6494C125.141 87.8584 131.488 82.4629 137.25 82.4629C140.229 82.4629 141.718 83.6104 141.718 85.9053C141.718 87.4678 140.741 89.9092 138.788 93.2295C136.884 96.5498 135.175 98.918 133.661 100.334C129.413 104.436 126.63 107.292 125.312 108.903C124.042 110.515 123.407 112.346 123.407 114.396C123.407 116.154 124.066 117.619 125.385 118.791C126.703 119.963 128.412 120.549 130.512 120.549C132.807 120.549 135.321 119.719 138.056 118.059C140.839 116.35 144.428 113.64 148.822 109.929ZM147.943 111.979V110.222C160.541 96.9404 169.208 87.6387 173.944 82.3164C175.019 76.3105 177.606 73.3076 181.708 73.3076C182.733 73.3076 183.832 73.6006 185.004 74.1865L185.443 75.5781C185.248 76.1641 185.15 76.9941 185.15 78.0684C185.15 78.9961 185.492 80.7295 186.176 83.2686C186.908 85.7588 187.47 87.8584 187.86 89.5674C188.251 91.2764 188.446 93.2051 188.446 95.3535C188.446 98.5762 187.714 101.677 186.249 104.655C184.784 107.585 182.66 110.417 179.877 113.151C177.094 115.837 173.505 118.596 169.11 121.428C170.868 121.721 172.26 121.867 173.285 121.867C175.287 121.867 177.436 121.379 179.73 120.402C182.074 119.377 184.442 118.034 186.835 116.374C189.276 114.665 192.108 112.468 195.331 109.782V114.689C189.081 120.793 183.49 125.432 178.559 128.605C173.627 131.73 169.379 133.293 165.814 133.293C161.225 133.293 156.977 131.34 153.07 127.434C150.775 125.09 149.335 122.844 148.749 120.695C148.212 118.547 147.943 115.642 147.943 111.979ZM175.263 100.773L173.944 90.0801C170.917 93.498 164.447 100.065 154.535 109.782C157.465 110.417 159.467 111.271 160.541 112.346C161.615 113.42 163.129 115.495 165.082 118.571C168.402 117.204 170.941 115.349 172.699 113.005C174.506 110.612 175.409 107.365 175.409 103.264C175.409 102.775 175.385 102.336 175.336 101.945C175.336 101.555 175.312 101.164 175.263 100.773ZM249.896 109.929V114.543C245.648 118.889 241.962 122.453 238.837 125.236C235.761 127.971 233.051 130.046 230.707 131.462C228.412 132.878 226.459 133.586 224.848 133.586C221.039 133.586 219.135 131.34 219.135 126.848C219.135 123.234 220.307 119.06 222.65 114.323C225.043 109.538 228.461 103.923 232.904 97.4775C230.707 98.6982 228.632 100.114 226.679 101.726C224.726 103.288 222.992 104.948 221.479 106.706C219.965 108.415 218.695 109.88 217.67 111.101C214.496 114.665 211.444 118.327 208.515 122.087C205.585 125.798 203.607 128.215 202.582 129.338C201.557 130.461 200.58 131.022 199.652 131.022C195.844 131.022 193.939 126.335 193.939 116.96C193.939 113.884 194.403 110.49 195.331 106.779C196.259 103.068 198.749 98.1611 202.802 92.0576C211.347 79.2646 218.646 68.8154 224.701 60.71C230.805 52.5557 235.858 46.4033 239.862 42.2529C243.866 38.0537 246.552 36.0029 247.919 36.1006C249.628 36.2471 250.995 36.5889 252.021 37.126C253.095 37.6631 253.632 38.2734 253.632 38.957C253.632 40.1777 252.777 42.2041 251.068 45.0361C249.408 47.8193 246.527 52.1895 242.426 58.1465C237.982 64.4453 234.833 68.8887 232.978 71.4766C231.122 74.0156 228.339 77.6533 224.628 82.3896C220.966 87.0771 217.597 91.2764 214.521 94.9873C211.493 98.6494 208.026 102.629 204.12 106.926V115.715C210.663 108.439 216.327 102.482 221.112 97.8438C225.897 93.2051 229.95 89.7139 233.271 87.3701C236.591 84.9775 239.032 83.7812 240.595 83.7812C242.06 83.7812 243.427 84.6602 244.696 86.418C245.966 88.127 246.601 89.543 246.601 90.666C246.601 91.1543 246.356 91.7646 245.868 92.4971C242.353 96.6963 239.545 100.188 237.445 102.971C235.395 105.705 233.808 108.171 232.685 110.368C231.562 112.517 231 114.372 231 115.935C231 118.229 232.099 119.377 234.296 119.377C236.64 119.377 241.84 116.228 249.896 109.929ZM375.36 109.636V114.689C370.722 119.035 366.767 122.551 363.495 125.236C360.272 127.873 357.05 130.266 353.827 132.414C350.604 134.514 347.919 136.003 345.771 136.882C343.671 137.81 341.864 138.273 340.351 138.273C336.737 138.273 333.783 136.931 331.488 134.245C329.193 131.56 328.046 128.093 328.046 123.845C328.046 118.962 329.022 114.128 330.976 109.343C332.978 104.558 335.81 99.626 339.472 94.5479C343.134 89.4209 347.724 83.6836 353.241 77.3359C357.343 72.6484 359.394 70.0117 359.394 69.4258C359.394 69.084 359.271 68.791 359.027 68.5469C358.783 68.3027 358.515 68.1807 358.222 68.1807C357.294 68.1807 354.438 70.2314 349.652 74.333C344.867 78.4346 338.715 84.4648 331.195 92.4238C323.725 100.383 315.644 109.855 306.952 120.842C306.464 121.428 304.901 123.43 302.265 126.848C299.677 130.217 297.846 132.414 296.771 133.439C295.697 134.465 294.77 134.978 293.988 134.978C292.621 134.978 291.425 133.61 290.399 130.876C289.423 128.093 288.935 125.139 288.935 122.014C288.935 120.109 289.545 118.059 290.766 115.861C292.035 113.664 294.745 109.733 298.896 104.069C303.095 98.3564 306.562 93.5469 309.296 89.6406C312.03 85.7344 315.033 80.998 318.305 75.4316C320.6 71.5742 322.284 68.498 323.358 66.2031C324.481 63.9082 325.043 61.8818 325.043 60.124C325.043 58.6104 324.604 57.8535 323.725 57.8535C321.869 57.8535 318.378 60.3438 313.251 65.3242C308.124 70.2559 301.776 77.6045 294.208 87.3701C286.688 97.1357 278.827 108.439 270.624 121.281C267.938 125.676 266.034 128.63 264.911 130.144C263.788 131.657 262.543 132.414 261.176 132.414C259.467 132.414 257.855 130.607 256.342 126.994C254.877 123.332 254.145 120.378 254.145 118.132C254.145 117.399 254.438 116.594 255.023 115.715C261.469 107.121 266.767 99.8213 270.917 93.8154C275.067 87.8096 278.754 82.1211 281.977 76.75C285.199 71.3301 287.543 66.8867 289.008 63.4199C290.473 59.9043 291.205 57.1455 291.205 55.1436C291.205 53.0439 290.253 51.9941 288.349 51.9941C286.786 51.9941 284.125 52.9951 280.365 54.9971C276.605 56.999 271.845 59.7334 266.083 63.2002C260.37 66.667 255.78 69.3281 252.313 71.1836C248.847 72.9902 246.259 73.8936 244.55 73.8936C242.938 73.8936 242.133 72.9902 242.133 71.1836C242.133 70.1582 242.475 67.8145 243.158 64.1523C243.842 60.4414 244.55 57.8291 245.282 56.3154C246.308 54.3623 248.92 51.7744 253.119 48.5518C257.367 45.3291 259.711 43.7178 260.15 43.7178C260.541 43.7178 260.736 43.8887 260.736 44.2305C260.736 44.4258 260.541 44.7188 260.15 45.1094C258.148 46.7207 256.659 48.0391 255.683 49.0645C254.706 50.0898 254.096 51.2129 253.852 52.4336C262.787 47.0625 270.771 42.9854 277.802 40.2021C284.882 37.3701 289.789 35.9541 292.523 35.9541C293.891 35.9541 295.185 36.8818 296.405 38.7373C297.626 40.5439 298.651 42.668 299.481 45.1094C300.36 47.502 300.8 49.04 300.8 49.7236C300.8 52.2139 300.165 55.168 298.896 58.5859C297.626 61.9551 295.893 65.8857 293.695 70.3779C291.547 74.8701 288.861 80.4854 285.639 87.2236C288.178 83.9521 290.595 80.9248 292.89 78.1416C295.185 75.3584 297.455 72.6484 299.701 70.0117C301.996 67.375 304.315 64.7139 306.659 62.0283C309.833 58.3662 313.397 54.875 317.353 51.5547C321.308 48.1855 324.994 45.4512 328.412 43.3516C331.879 41.2031 334.223 40.1289 335.443 40.1289C337.152 40.1289 338.666 41.0811 339.984 42.9854C341.352 44.8408 342.035 46.8428 342.035 48.9912C342.035 50.4072 341.107 53.1172 339.252 57.1211C337.396 61.125 334.687 66.252 331.122 72.502C327.558 78.752 322.846 86.8086 316.986 96.6719C322.553 90.7637 328.339 84.6846 334.345 78.4346C340.351 72.1846 344.818 67.6191 347.748 64.7383C350.678 61.8574 353.119 59.6602 355.072 58.1465C357.758 56.0957 360.443 53.8984 363.129 51.5547C365.863 49.1621 368.012 47.2822 369.574 45.915C371.137 44.5479 372.528 43.498 373.749 42.7656C374.97 42.0332 376.093 41.667 377.118 41.667C378.388 41.667 379.975 43.1318 381.879 46.0615C383.832 48.9912 384.809 50.8711 384.809 51.7012C384.809 52.7266 384.223 53.9473 383.051 55.3633C381.928 56.7793 379.56 59.416 375.946 63.2734C369.306 70.4023 363.544 77.6045 358.661 84.8799C353.778 92.1064 350.067 98.7227 347.528 104.729C345.038 110.686 343.793 115.397 343.793 118.864C343.793 121.013 344.184 122.575 344.965 123.552C345.795 124.528 347.064 125.017 348.773 125.017C350.336 125.017 351.776 124.724 353.095 124.138C354.462 123.552 355.951 122.722 357.562 121.647C359.223 120.573 360.785 119.548 362.25 118.571C364.301 117.351 366.303 116.057 368.256 114.689C370.258 113.273 371.796 112.175 372.87 111.394C373.993 110.563 374.823 109.978 375.36 109.636ZM383.417 96.8184C390.839 90.0801 398.041 85.0752 405.023 81.8037C412.006 78.5322 417.401 76.8965 421.21 76.8965C422.235 76.8965 423.188 77.3359 424.066 78.2148C424.945 79.0449 425.629 80.0215 426.117 81.1445C426.654 82.2676 426.923 83.0977 426.923 83.6348C426.923 84.5137 426.581 85.1729 425.897 85.6123C425.214 86.0029 424.018 86.4912 422.309 87.0771C422.65 87.8584 423.09 88.8594 423.627 90.0801C424.164 91.3008 424.579 92.3018 424.872 93.083C425.165 93.8154 425.312 94.4746 425.312 95.0605C425.312 96.2324 424.115 98.4297 421.723 101.652C419.379 104.826 417.719 107.17 416.742 108.684C415.814 110.197 415.351 112.053 415.351 114.25C415.351 117.863 417.011 119.67 420.331 119.67C423.749 119.67 429.096 116.472 436.371 110.075V114.543C424.018 128.264 415.18 135.124 409.857 135.124C407.953 135.124 406.586 134.489 405.756 133.22C404.975 131.999 404.584 130.168 404.584 127.727C404.584 123.869 405.976 118.278 408.759 110.954C401.63 118.864 396.332 124.504 392.865 127.873C389.398 131.193 386.542 132.854 384.296 132.854C383.222 132.854 381.879 131.926 380.268 130.07C378.656 128.215 377.216 125.822 375.946 122.893C374.726 119.914 374.115 116.838 374.115 113.664C374.115 111.369 374.335 109.465 374.774 107.951C375.214 106.389 376.068 104.802 377.338 103.19C378.607 101.579 380.634 99.4551 383.417 96.8184ZM418.5 88.7617C405.805 94.5723 396.747 99.5039 391.327 103.557C385.956 107.609 383.271 111.784 383.271 116.081C383.271 117.644 383.539 118.938 384.076 119.963C384.613 120.939 385.346 121.428 386.273 121.428C386.811 121.428 387.763 121.086 389.13 120.402C394.257 117.375 398.944 113.444 403.192 108.61C407.44 103.728 412.543 97.1113 418.5 88.7617ZM461.493 71.916H464.643C467.23 67.2773 469.574 64.0059 471.674 62.1016C473.773 60.1484 476.166 59.1719 478.852 59.1719C481.537 59.1719 482.88 59.7822 482.88 61.0029C482.88 61.5889 481.83 63.1758 479.73 65.7637C477.631 68.3516 476.044 70.5244 474.97 72.2822C476.63 72.4775 478.095 72.6484 479.364 72.7949C480.683 72.9414 481.708 73.0635 482.44 73.1611C479.657 78.3369 476.166 83.6348 471.967 89.0547C470.6 88.957 469.452 88.8838 468.524 88.835C467.597 88.7373 466.645 88.6641 465.668 88.6152C464.74 88.5176 463.593 88.4199 462.226 88.3223C459.589 92.5703 457.367 96.3789 455.561 99.748C453.803 103.068 452.436 106.12 451.459 108.903C450.531 111.687 450.067 114.323 450.067 116.813C450.067 120.183 451.41 121.867 454.096 121.867C455.951 121.867 458.368 120.891 461.347 118.938C464.374 116.936 468.402 113.884 473.432 109.782V114.689C460.248 128.996 450.507 136.149 444.208 136.149C442.011 136.149 440.229 135.295 438.861 133.586C437.543 131.877 436.884 129.68 436.884 126.994C436.884 125.188 437.25 123.039 437.982 120.549C438.764 118.059 440.131 114.299 442.084 109.27C441.4 109.855 440.741 110.441 440.106 111.027C439.521 111.564 438.959 112.077 438.422 112.565C437.934 113.005 437.396 113.493 436.811 114.03C436.225 114.519 435.639 115.031 435.053 115.568V110.515C440.18 106.218 446.381 98.6738 453.656 87.8828C452.924 87.834 452.24 87.8096 451.605 87.8096C450.971 87.7607 450.214 87.7363 449.335 87.7363C446.454 87.7363 444.306 87.9316 442.89 88.3223C442.304 88.4688 441.742 88.6396 441.205 88.835C440.717 88.9814 440.375 89.0547 440.18 89.0547C439.984 89.0547 439.887 88.9082 439.887 88.6152C439.887 87.0039 440.888 84.5869 442.89 81.3643C444.501 78.6299 446.015 76.6035 447.431 75.2852C448.896 73.9668 450.653 73.0879 452.704 72.6484C454.804 72.1602 457.733 71.916 461.493 71.916ZM485.004 112.565V114.396C485.004 117.277 485.712 119.523 487.128 121.135C488.544 122.746 490.399 123.552 492.694 123.552C495.087 123.552 497.553 122.99 500.092 121.867C502.68 120.744 505.243 119.255 507.782 117.399C510.321 115.544 513.422 113.054 517.084 109.929V114.396C511.566 121.037 506.391 126.14 501.557 129.704C496.723 133.22 491.815 134.978 486.835 134.978C482.489 134.978 479.047 133.293 476.508 129.924C473.969 126.555 472.699 121.94 472.699 116.081C472.699 110.954 473.896 106.315 476.288 102.165C478.681 97.9658 482.587 93.5469 488.007 88.9082C491.718 85.7344 495.404 83.3418 499.066 81.7305C502.729 80.1191 506 79.3135 508.881 79.3135C511.176 79.3135 512.982 79.8506 514.301 80.9248C515.668 81.9502 516.352 83.5127 516.352 85.6123C516.352 88.6885 515.204 91.7646 512.909 94.8408C510.614 97.8682 507.099 100.896 502.362 103.923C497.675 106.901 491.889 109.782 485.004 112.565ZM485.736 107.805C490.131 106.096 493.891 103.972 497.016 101.433C500.141 98.8936 502.436 96.4766 503.9 94.1816C505.414 91.8379 506.171 90.1289 506.171 89.0547C506.171 87.9316 505.658 87.3701 504.633 87.3701C503.754 87.3701 502.313 87.9316 500.312 89.0547C498.358 90.1777 496.356 91.6426 494.306 93.4492C492.304 95.2559 490.497 97.3799 488.886 99.8213C487.274 102.263 486.225 104.924 485.736 107.805Z" fill="#458D1A"/>
</svg>
