<svg xmlns="http://www.w3.org/2000/svg" width="80" height="80" viewBox="0 0 121 121" fill="none">
  <path d="M60.5 121C93.9132 121 121 93.9132 121 60.5C121 27.0868 93.9132 0 60.5 0C27.0868 0 0 27.0868 0 60.5C0 93.9132 27.0868 121 60.5 121Z" fill="#9AC87F"/>
  <mask id="mask0_65_368" style="mask-type:luminance" maskUnits="userSpaceOnUse" x="32" y="31" width="49" height="59">
    <path d="M80.977 31.8857H32V89.1147H80.977V31.8857Z" fill="white"/>
  </mask>
  <g mask="url(#mask0_65_368)">
    <path d="M75.2 35.3305C76.5992 36.2685 77.6888 37.6004 78.331 39.1576C78.9732 40.7149 79.1391 42.4277 78.8078 44.0793C78.4764 45.7309 77.6627 47.2471 76.4696 48.4362C75.2764 49.6253 73.7574 50.4338 72.1047 50.7595C70.452 51.0852 68.7398 50.9135 67.1847 50.266C65.6297 49.6185 64.3015 48.5243 63.3683 47.1219C62.4352 45.7196 61.9388 44.0719 61.9422 42.3874C61.9455 40.7029 62.4483 39.0572 63.387 37.6585C64.6452 35.7838 66.5964 34.4855 68.8116 34.0489C71.0267 33.6124 73.3246 34.0734 75.2 35.3305Z" stroke="white" stroke-width="4" stroke-miterlimit="10"/>
    <path d="M47.262 53.4276C48.6606 54.3659 49.7496 55.698 50.3912 57.2553C51.0328 58.8125 51.1983 60.5251 50.8666 62.1764C50.5349 63.8276 49.7211 65.3435 48.5279 66.5323C47.3348 67.721 45.8159 68.5293 44.1634 68.8548C42.5109 69.1804 40.799 69.0086 39.2441 68.3612C37.6892 67.7138 36.3612 66.6199 35.428 65.2178C34.4948 63.8157 33.9983 62.1684 34.0014 60.4841C34.0044 58.7999 34.5068 57.1543 35.445 55.7556C36.068 54.8267 36.8679 54.0297 37.7989 53.4101C38.73 52.7904 39.774 52.3602 40.8713 52.144C41.9686 51.9278 43.0978 51.9299 44.1943 52.1501C45.2908 52.3704 46.3332 52.8045 47.262 53.4276Z" stroke="white" stroke-width="4" stroke-miterlimit="10"/>
    <path d="M49.667 55.8697L63.31 47.0337" stroke="white" stroke-width="4" stroke-miterlimit="10"/>
    <path d="M65.715 71.5244C64.3163 72.4628 63.2274 73.7948 62.5857 75.3521C61.9441 76.9093 61.7787 78.6219 62.1104 80.2732C62.442 81.9245 63.2559 83.4403 64.449 84.6291C65.6422 85.8178 67.1611 86.6261 68.8136 86.9516C70.4661 87.2772 72.178 87.1054 73.7329 86.458C75.2877 85.8106 76.6157 84.7167 77.5489 83.3146C78.4821 81.9125 78.9786 80.2652 78.9756 78.5809C78.9726 76.8967 78.4702 75.2511 77.532 73.8524C76.2736 71.9768 74.3217 70.6778 72.1056 70.2412C69.8895 69.8046 67.5908 70.2662 65.715 71.5244Z" stroke="white" stroke-width="4" stroke-miterlimit="10"/>
    <path d="M63.311 73.9664L49.668 65.1304" stroke="white" stroke-width="4" stroke-miterlimit="10"/>
  </g>
</svg>